<?xml version="1.0" encoding="UTF-8"?>
<svg width="337px" height="81px" viewBox="0 0 337 81" version="1.1" xmlns="http://www.w3.org/2000/svg" xmlns:xlink="http://www.w3.org/1999/xlink">
    <!-- Generator: Sketch 51.2 (57519) - http://www.bohemiancoding.com/sketch -->
    <title>Group</title>
    <desc>Created with Sketch.</desc>
    <defs></defs>
    <g id="05.-Case-Studies" stroke="none" stroke-width="1" fill="none" fill-rule="evenodd">
        <g id="02-Case-Study" transform="translate(-547.000000, -2596.000000)" fill="#000000" fill-rule="nonzero">
            <g id="Group" transform="translate(548.000000, 2597.000000)">
                <path id="mid" d="M169.331656,70.0474049 L159.800536,76.434766 L160.967327,77.0245097 L160.458087,65.5623415 C160.439702,65.1485361 160.089343,64.8279842 159.675538,64.8463687 C159.261732,64.8647532 158.94118,65.2151124 158.959565,65.6289177 L159.468805,77.0910859 C159.494763,77.675357 160.149758,78.0064182 160.635596,77.6808296 L170.166716,71.2934685 C170.510807,71.062873 170.602813,70.5969975 170.372218,70.2529066 C170.141622,69.9088156 169.675747,69.8168094 169.331656,70.0474049 Z M168.783796,2.72260381 C172.585981,14.95572 173.742559,27.1824041 172.255486,39.409451 C171.102256,48.8915675 168.358654,58.3776286 164.022551,67.8694037 L159.830643,76.1616795 C159.643793,76.5313554 159.792004,76.9825081 160.16168,77.1693573 C160.531355,77.3562066 160.982508,77.2079963 161.169357,76.8383205 L165.374096,68.5193659 C169.785681,58.8637654 172.572254,49.2291295 173.744514,39.590549 C175.257441,27.1509292 174.080685,14.7109467 170.216204,2.27739619 C170.093263,1.88184788 169.672944,1.66085575 169.277396,1.78379644 C168.881848,1.90673713 168.660856,2.3270555 168.783796,2.72260381 Z"></path>
                <path id="left" d="M42.9707578,68.2527896 L47.9056457,78.6107578 L48.6586466,77.5420257 L37.2441059,76.3806111 C36.8320199,76.3386819 36.4639679,76.6387532 36.4220387,77.0508392 C36.3801095,77.4629251 36.6801809,77.8309771 37.0922668,77.8729063 L48.5068076,79.0343208 C49.088651,79.0935226 49.5113589,78.4935745 49.2598085,77.9655887 L44.3249205,67.6076205 C44.146762,67.2336787 43.6991963,67.0749651 43.3252546,67.2531236 C42.9513129,67.4312822 42.7925992,67.8788479 42.9707578,68.2527896 Z M-0.75,0.5 C-0.75,24.6043044 17.9381149,55.4082306 39.9971562,73.1546063 L47.6398306,78.5412961 C47.9784384,78.7798703 48.4463368,78.6987771 48.684911,78.3601694 C48.9234853,78.0215616 48.8423921,77.5536632 48.5037843,77.315089 L40.899254,71.9571344 C19.2008811,54.4989631 0.75,24.0860732 0.75,0.5 C0.75,0.0857864376 0.414213562,-0.25 0,-0.25 C-0.414213562,-0.25 -0.75,0.0857864376 -0.75,0.5 Z"></path>
                <path id="right" d="M297.827702,76.8806111 L286.413161,78.0420257 L287.166162,79.1107578 L292.10105,68.7527896 C292.279208,68.3788479 292.120495,67.9312822 291.746553,67.7531236 C291.372611,67.5749651 290.925045,67.7336787 290.746887,68.1076205 L285.811999,78.4655887 C285.560449,78.9935745 285.983157,79.5935226 286.565,79.5343208 L297.979541,78.3729063 C298.391627,78.3309771 298.691698,77.9629251 298.649769,77.5508392 C298.60784,77.1387532 298.239788,76.8386819 297.827702,76.8806111 Z M334.321807,1 C334.321807,24.5860732 315.870926,54.9989631 294.134409,72.4858698 L286.568023,77.815089 C286.229415,78.0536632 286.148322,78.5215616 286.386896,78.8601694 C286.625471,79.1987771 287.093369,79.2798703 287.431977,79.0412961 L295.036507,73.6833416 C317.133693,55.9082306 335.821807,25.1043044 335.821807,1 C335.821807,0.585786438 335.486021,0.25 335.071807,0.25 C334.657594,0.25 334.321807,0.585786438 334.321807,1 Z"></path>
            </g>
        </g>
    </g>
</svg>