<svg id="myLogo" xmlns="http://www.w3.org/2000/svg" width="101" height="48">
  <defs>
    <linearGradient id="grad3" gradientUnits="userSpaceOnUse">
      <stop offset="0%" class="stop1" stop-color="#6772E5"/>
      <stop offset="100%" class="stop2" stop-color="#68D5F8"/>
    </linearGradient>
    <linearGradient id="grad-crimson" gradientUnits="userSpaceOnUse">
      <stop offset="0%" class="stop1" stop-color="#C81C31"/>
      <stop offset="100%" class="stop2" stop-color="#FF4058"/>
    </linearGradient>
    <linearGradient id="grad-turquoise" gradientUnits="userSpaceOnUse">
      <stop offset="0%" class="stop1" stop-color="#4DD0E1"/>
      <stop offset="100%" class="stop2" stop-color="#4EFFB4"/>
    </linearGradient>
    <linearGradient id="grad-dodgerblue" gradientUnits="userSpaceOnUse">
      <stop offset="0%" class="stop1" stop-color="#4480FF"/>
      <stop offset="100%" class="stop2" stop-color="#4DDE01"/>
    </linearGradient>
    <linearGradient id="grad-slategray" gradientUnits="userSpaceOnUse">
      <stop offset="0%" class="stop1" stop-color="#3B3B44"/>
      <stop offset="100%" class="stop2" stop-color="#7D89B5"/>
    </linearGradient>
    <linearGradient id="grad-kiwi" gradientUnits="userSpaceOnUse">
      <stop offset="0%" class="stop1" stop-color="#4CAF50"/>
      <stop offset="100%" class="stop2" stop-color="#B7EE68"/>
    </linearGradient>
    <linearGradient id="grad-gold" gradientUnits="userSpaceOnUse">
      <stop offset="0%" class="stop1" stop-color="#F4B400"/>
      <stop offset="100%" class="stop2" stop-color="#4CAF50"/>
    </linearGradient>
    <linearGradient id="grad-vermilion" gradientUnits="userSpaceOnUse">
      <stop offset="0%" class="stop1" stop-color="#F44336"/>
      <stop offset="100%" class="stop2" stop-color="#FF9E65"/>
    </linearGradient>
    <linearGradient id="grad-lilac" gradientUnits="userSpaceOnUse">
      <stop offset="0%" class="stop1" stop-color="#9575CD"/>
      <stop offset="100%" class="stop2" stop-color="#C0A0F7"/>
    </linearGradient>
    <linearGradient id="grad-lochmara" gradientUnits="userSpaceOnUse">
      <stop offset="0%" class="stop1" stop-color="#0277BD"/>
      <stop offset="100%" class="stop2" stop-color="#28AAF8"/>
    </linearGradient>
    <linearGradient id="grad-cerulean" gradientUnits="userSpaceOnUse">
      <stop offset="0%" class="stop1" stop-color="#03A9F4"/>
      <stop offset="100%" class="stop2" stop-color="#28E2F8"/>
    </linearGradient>
    <linearGradient id="grad-hibiscus" gradientUnits="userSpaceOnUse">
      <stop offset="0%" class="stop1" stop-color="#BD2E6E"/>
      <stop offset="100%" class="stop2" stop-color="#F74E93"/>
    </linearGradient>
  </defs>
  <g>
    <path id="logoName" fill="url(#grad3)" d="M76.6 38c.4-.9 1-1.6 1.7-2.3.8-.7 1.6-1.2 2.5-1.6 1-.5 2-.8 3.1-.7 1 0 2.2.3 3.4 1l.1-.5c0-.2.2-.3.3-.5.4-.2 1-.4 1.5-.4s.9.3 1.2.8c0 .7 0 1.6-.2 2.7-.5 2.3-.5 4 0 5 .4 1.1 1.2 1.6 2.3 1.5 1 0 2.5-1.1 4.3-3.2 1.7-2.1 2.4-2.6 2-1.5-.3 1-1 2.3-2 3.8a7.1 7.1 0 0 1-4.1 2.7c-1.6.4-3 .4-4.2-.2-1.2-.5-1.8-1.9-2-4.1a12.4 12.4 0 0 1-3.8 5c-1.2.6-2.4 1-3.7.7-1.5-.2-2.5-.8-3-1.7-.5-.9-.7-2-.5-3.1a11 11 0 0 1 .4-2.1 125.4 125.4 0 0 0-3.7 2.4l.4 1.3c.1.6.2 1.3.1 2 0 .8-.2 1.4-.7 2-.4.5-1.1.9-2.2 1-1 0-1.9 0-2.7-.5-.8-.4-1.3-1-1.5-1.7-.2-.7 0-1.6.8-2.5.4-.6 1-1 1.6-1.5l.7-.4-2.2-2.6-.5-.7-2.8 3.3a13.3 13.3 0 0 1-4.3 3.3c-1.2.5-2.4 1-3.6 1.2a10 10 0 0 1-3.8.2 6.2 6.2 0 0 1-3.3-1.6 6 6 0 0 1-1.8-2.7 6 6 0 0 1-1.9 2.3c-.8.7-1.8 1-2.9 1.2-1.6.2-2.9 0-3.9-.5s-1.7-1.2-2.3-2.2c-.5-.9-1-2-1.2-3-.4 1.2-1 2.4-1.7 3.6a9 9 0 0 1-2.7 2.8c-1 .7-2.4 1-3.9.8a6 6 0 0 1-3.6-1.8c-1-1-1.6-2.2-2-3.5l-.4-1.6c-.9.8-1.8 1.7-3 2.4A26.3 26.3 0 0 1 9.1 46a10 10 0 0 1-3.8.2A6.2 6.2 0 0 1 2 44.5a5.7 5.7 0 0 1-2-5.2 7.5 7.5 0 0 1 6-6.5c1.3-.2 2.6-.3 4 0a4 4 0 0 1 1.6.6c.5.3.7.7.8 1.2 0 .5-.2 1-.6 1.4-.8.7-1.8 1.1-2.9 1.3a33 33 0 0 1-3.7.4c-.7 0-1 .1-1.3.4-.3.2-.4.6-.4 1.2-.2 1.7.3 3 1.5 4a4 4 0 0 0 2.9.8 12 12 0 0 0 3.5-.9 31.9 31.9 0 0 0 7-3.7 18 18 0 0 1 1.3-.7l-.1-1.2a108 108 0 0 1 .9-29c.7-3 1.7-5.6 3.1-7.3.8-.9 1.7-1.3 2.7-1.3 1 0 2 .4 2.8 1.2 1 1.2 1.7 2.6 1.8 4 .3 2.4.2 5-.3 7.8s-1.3 5.6-2.3 8.3a89.3 89.3 0 0 1-5.8 12.8 30.7 30.7 0 0 0 1.3 7.5 8 8 0 0 0 1.9 3.1c.9.8 1.8.8 2.9 0 1-.7 2-1.8 3-3.2a24 24 0 0 0 2.2-4.3 94.1 94.1 0 0 1 .9-25.2c.6-2.8 1.5-5 2.8-6.5a3.4 3.4 0 0 1 4.9 0c1 1 1.4 2.2 1.6 3.5.3 2.8 0 5.9-.9 9.2a62.8 62.8 0 0 1-6.6 16 29.3 29.3 0 0 0 1.1 6.6c.4 1.1 1 2 1.7 2.7 1.4 1 2.8 1 4.2 0 1.2-.9 2.1-2 2.7-3.6v-.6a7.5 7.5 0 0 1 6-6.5c1.3-.2 2.6-.3 4 0a4 4 0 0 1 1.6.6c.4.3.7.7.7 1.2s0 1-.5 1.4c-.8.7-1.8 1.1-3 1.3a33 33 0 0 1-3.7.4c-.6 0-1 .1-1.2.4-.3.2-.4.6-.5 1.2-.2 1.7.4 3 1.6 4 .8.7 1.7 1 2.8.8 1.1 0 2.3-.4 3.6-.9a15.8 15.8 0 0 0 7.6-8.3c.2-.5.5-1 1-1.3.5-.4 1.1-.6 1.9-.7a5 5 0 0 1 1.6.1c.5.1 1 .4 1.4.7l.2.4v.4c-.2.2-.4.4-.7.4l-.6-.1-.6-.3-.3-.1c-.4-.2-.7-.2-1 0l-.2.9c0 .6.3 1.3.8 2.1a29.4 29.4 0 0 0 2.1 2.7c.2.2.5.2 1.2 0a24.3 24.3 0 0 0 4.6-2.2zm-71-2.6l-.2.2-.2.2-.1.2h.7c.4 0 1 0 1.5-.2.5 0 1-.2 1.3-.4.4-.2.5-.4.3-.7l-.2-.2-.3-.1c-.5 0-1 0-1.5.3a8 8 0 0 0-1.2.7zM23 19.6a58.8 58.8 0 0 0-.4 8.1l-.2 4.1A65 65 0 0 0 29 7.2a9.7 9.7 0 0 0-1-4.5c-.6-.8-1.2-.8-1.9-.2-.6.7-1.1 2-1.5 4.1a126.4 126.4 0 0 0-1.7 13zm14 2a100 100 0 0 0-.5 7l-.1 3.6A43.5 43.5 0 0 0 41 20c.7-2.9 1.1-6 1.3-9.3 0-2-.4-3.2-.9-4-.5-.6-1-.7-1.6-.1-.6.6-1 1.8-1.4 3.6-.5 3-1 6-1.2 9.1l-.3 2.3zm14.9 13.8l-.3.2-.2.2-.1.2h.7c.4 0 1 0 1.4-.2a5 5 0 0 0 1.4-.4c.3-.2.4-.4.3-.7l-.2-.2-.3-.1c-.6 0-1 0-1.5.3a8 8 0 0 0-1.2.7zM69 46.5c.4 0 .6-.2.8-.6v-1.3-1c0-.2-.1-.3-.3-.4h-.3a3 3 0 0 0-1 1.4c-.2.5-.2 1 0 1.3l.4.4.4.2zm10.4-2.7c.6.5 1.3.4 2-.1.8-.6 1.6-1.4 2.3-2.4.8-1 1.4-2 1.9-3a8 8 0 0 0 .8-2.3c-1.5-.7-2.8-.9-3.8-.3-1 .5-2 1.3-2.6 2.5-.6 1.1-1 2.3-1 3.4-.2 1.1 0 1.8.4 2.2z"/>
    <path id="logoRayLeft" fill="#121228" d="M76.5 23.6c.6-.6.9-.7 1.4-.6 1.3.3 2.8 6.7 1.8 8.1-.6.8-4.4-6.5-3.2-7.5z"/>
    <path id="logoRayMiddle" fill="#121228" d="M88.6 21.3c.8-.1 1 0 1.5.4.9 1-1.3 7-3 7.6-.9.3 0-7.8 1.5-8z"/>
    <path id="logoRayRight" fill="#121228" d="M100.1 26.8c.7.4.9.7.9 1.3 0 1.5-5.7 4.7-7.3 4-1-.5 5.1-6.3 6.4-5.3z"/>
  </g>
</svg>
