<svg xmlns="http://www.w3.org/2000/svg" viewBox="0 0 125 60" height="48" width="101" version="1.1">
  <defs>
    <linearGradient id="grad3" gradientUnits="userSpaceOnUse">
      <stop offset="0%" class="stop1" stop-color="#161517"/>
      <stop offset="100%" class="stop2" stop-color="#161517"/>
    </linearGradient>
    <linearGradient id="grad-indigo" gradientUnits="userSpaceOnUse">
      <stop offset="0%" class="stop1" stop-color="#6772E5"/>
      <stop offset="100%" class="stop2" stop-color="#68D5F8"/>
    </linearGradient>
    <linearGradient id="grad-crimson" gradientUnits="userSpaceOnUse">
      <stop offset="0%" class="stop1" stop-color="#C81C31"/>
      <stop offset="100%" class="stop2" stop-color="#FF4058"/>
    </linearGradient>
    <linearGradient id="grad-turquoise" gradientUnits="userSpaceOnUse">
      <stop offset="0%" class="stop1" stop-color="#4DD0E1"/>
      <stop offset="100%" class="stop2" stop-color="#4EFFB4"/>
    </linearGradient>
    <linearGradient id="grad-dodgerblue" gradientUnits="userSpaceOnUse">
      <stop offset="0%" class="stop1" stop-color="#4480FF"/>
      <stop offset="100%" class="stop2" stop-color="#676EFF"/>
    </linearGradient>
    <linearGradient id="grad-slategray" gradientUnits="userSpaceOnUse">
      <stop offset="0%" class="stop1" stop-color="#3B3B44"/>
      <stop offset="100%" class="stop2" stop-color="#7D89B5"/>
    </linearGradient>
    <linearGradient id="grad-kiwi" gradientUnits="userSpaceOnUse">
      <stop offset="0%" class="stop1" stop-color="#4CAF50"/>
      <stop offset="100%" class="stop2" stop-color="#B7EE68"/>
    </linearGradient>
    <linearGradient id="grad-gold" gradientUnits="userSpaceOnUse">
      <stop offset="0%" class="stop1" stop-color="#F4B400"/>
      <stop offset="100%" class="stop2" stop-color="#4CAF50"/>
    </linearGradient>
    <linearGradient id="grad-vermilion" gradientUnits="userSpaceOnUse">
      <stop offset="0%" class="stop1" stop-color="#F44336"/>
      <stop offset="100%" class="stop2" stop-color="#FF9E65"/>
    </linearGradient>
    <linearGradient id="grad-lilac" gradientUnits="userSpaceOnUse">
      <stop offset="0%" class="stop1" stop-color="#9575CD"/>
      <stop offset="100%" class="stop2" stop-color="#C0A0F7"/>
    </linearGradient>
    <linearGradient id="grad-lochmara" gradientUnits="userSpaceOnUse">
      <stop offset="0%" class="stop1" stop-color="#0277BD"/>
      <stop offset="100%" class="stop2" stop-color="#28AAF8"/>
    </linearGradient>
    <linearGradient id="grad-cerulean" gradientUnits="userSpaceOnUse">
      <stop offset="0%" class="stop1" stop-color="#03A9F4"/>
      <stop offset="100%" class="stop2" stop-color="#28E2F8"/>
    </linearGradient>
    <linearGradient id="grad-hibiscus" gradientUnits="userSpaceOnUse">
      <stop offset="0%" class="stop1" stop-color="#FF397F"/>
      <stop offset="100%" class="stop2" stop-color="#FFB280"/>
    </linearGradient>
  </defs>
  <g>
    <path id="logoName" fill="url(#grad3)" d="M95 47.4a12.7 12.7 0 0 1 5.2-4.8c1.3-.6 2.6-1 4-.9 1.3 0 2.6.5 4.1 1.3v-.1l.2-.6c0-.2.2-.3.4-.5a3 3 0 0 1 1.7-.5c.7 0 1.2.3 1.6 1 0 .9 0 2-.3 3.3-.5 3-.5 5 0 6.4.5 1.3 1.5 1.9 2.9 1.8 1.3-.1 3.1-1.5 5.3-4 2.2-2.7 3-3.3 2.6-2-.5 1.4-1.4 3-2.7 4.8-1.3 1.8-3 3-5 3.4-2 .5-3.7.5-5.2-.2-1.4-.6-2.2-2.4-2.4-5.2a15.5 15.5 0 0 1-4.7 6.2 7 7 0 0 1-4.7 1c-1.8-.3-3-1-3.7-2.1a6 6 0 0 1-.7-4 13.9 13.9 0 0 1 .6-2.6 155.4 155.4 0 0 0-4.6 3l.4 1.7c.2.8.3 1.6.2 2.5 0 .9-.3 1.7-.8 2.4-.6.7-1.5 1.1-2.7 1.3-1.3 0-2.4-.1-3.4-.6s-1.6-1.2-1.9-2.1c-.2-1 0-2 1-3.2a9 9 0 0 1 2-1.8l.9-.6c-1-1-2-2.1-2.8-3.2l-.6-1-3.4 4.2c-1.8 2-3.6 3.4-5.4 4.2l-4.5 1.5c-1.6.4-3.1.5-4.7.2-1.5-.2-2.9-.9-4.1-2-1.1-1-1.8-2-2.2-3.3-.5 1-1.2 2-2.4 2.9-1 .7-2.2 1.3-3.5 1.5-2 .2-3.6 0-4.9-.7a7 7 0 0 1-2.9-2.7c-.6-1.2-1.1-2.4-1.4-3.8-.6 1.5-1.3 3-2.2 4.5-.9 1.4-2 2.6-3.3 3.5-1.4 1-3 1.3-4.8 1-2-.3-3.5-1-4.6-2.3-1-1.2-1.9-2.7-2.4-4.3l-.5-2a32.5 32.5 0 0 1-13.4 7.6c-1.6.3-3.1.4-4.7.1-1.5-.2-2.9-.9-4.2-2C.5 53.8-.3 51.6.1 49a9.5 9.5 0 0 1 7.3-8c1.6-.4 3.3-.4 5-.2a5 5 0 0 1 2 .8c.6.4.9 1 1 1.5 0 .6-.2 1.2-.7 1.7-1 1-2.3 1.5-3.7 1.7-1.5.3-3 .4-4.6.5-.8 0-1.3.2-1.6.5-.3.3-.5.8-.5 1.6-.3 2 .4 3.7 2 5a5 5 0 0 0 3.5 1c1.4-.2 2.8-.5 4.4-1.2a39.4 39.4 0 0 0 8.6-4.6 22.2 22.2 0 0 1 1.6-1l-.1-1.4A136 136 0 0 1 25.4 11c.9-4 2.2-7.1 3.9-9.3 1-1 2-1.6 3.4-1.6 1.3 0 2.4.5 3.5 1.5a9 9 0 0 1 2.2 5c.4 3 .2 6.3-.4 9.8-.7 3.5-1.7 7-2.9 10.3a112.1 112.1 0 0 1-7.2 16 38.7 38.7 0 0 0 1.6 9.4 10 10 0 0 0 2.3 4c1.1.9 2.4.9 3.7 0 1.2-1 2.5-2.3 3.7-4.2a30 30 0 0 0 2.7-5.3A118.5 118.5 0 0 1 43 14.9a20 20 0 0 1 3.5-8 4.2 4.2 0 0 1 6-.1 8 8 0 0 1 2 4.4c.5 3.6.2 7.4-1 11.6a78.8 78.8 0 0 1-8.3 20 36.9 36.9 0 0 0 1.5 8.2 9 9 0 0 0 2 3.4c1.9 1.2 3.6 1.2 5.3 0a9 9 0 0 0 3.3-4.5v-.8a9.5 9.5 0 0 1 7.4-8c1.6-.4 3.3-.4 5-.2a5 5 0 0 1 2 .8c.6.4.9 1 1 1.5 0 .6-.2 1.2-.7 1.7-1 1-2.3 1.5-3.7 1.7-1.5.3-3 .4-4.7.5-.7 0-1.2.2-1.5.5-.3.3-.5.8-.6 1.6-.2 2 .5 3.7 2 5 1 .7 2.1 1 3.5 1a15 15 0 0 0 4.5-1.2 19.7 19.7 0 0 0 9.4-10.4c.2-.6.6-1.2 1.2-1.6.6-.5 1.4-.7 2.4-.8h2a4 4 0 0 1 1.7 1l.3.4-.1.5c-.2.3-.4.5-.8.5l-.8-.1-.7-.3-.4-.3c-.5-.1-.8-.1-1 .1-.3.3-.5.6-.5 1 0 1 .4 1.8 1 2.8a36.7 36.7 0 0 0 2.7 3.4c.1.2.6.1 1.4-.1a30.1 30.1 0 0 0 5.7-2.7zM7 44.2c0 .2-.2.2-.3.3l-.3.3-.1.2h.9c.5 0 1.1 0 1.8-.2l1.7-.6c.4-.2.6-.5.4-.8l-.3-.3-.4-.2c-.7 0-1.2.2-1.8.4l-1.6 1zm21.6-19.7a74 74 0 0 0-.6 10.2l-.2 5.1A81.7 81.7 0 0 0 36 9c-.2-2.7-.6-4.6-1.3-5.6-.7-1-1.4-1-2.2-.2-.8.8-1.5 2.5-2 5.1a159 159 0 0 0-2 16.2zM45.8 27a126 126 0 0 0-.5 8.9l-.2 4.5A54.6 54.6 0 0 0 50.8 25c1-3.6 1.5-7.4 1.7-11.6-.1-2.4-.5-4-1.1-5-.6-.8-1.3-.9-2-.2-.7.8-1.3 2.3-1.7 4.6-.7 3.7-1.2 7.5-1.5 11.3l-.4 2.8zm18.5 17.3c0 .2-.2.2-.3.3l-.3.3-.1.2h.9c.5 0 1.2 0 1.8-.2l1.7-.6c.4-.2.5-.5.4-.8l-.3-.3-.4-.2c-.6 0-1.2.2-1.8.4l-1.6 1zm21.3 14c.5-.1.8-.4 1-.9.1-.4.2-1 .1-1.6v-1.3l-.4-.4h-.5c-.5.5-1 1-1.2 1.7-.2.6-.2 1.2 0 1.7l.5.5.5.2zm12.9-3.4c.7.5 1.6.4 2.6-.2 1-.7 1.9-1.7 2.8-3 .9-1.2 1.7-2.5 2.3-3.7.6-1.3 1-2.2 1-2.8-1.8-1-3.4-1.2-4.7-.5a7 7 0 0 0-3.2 3.1c-.7 1.5-1.2 3-1.4 4.3-.1 1.4 0 2.3.6 2.8z"/>
    <path id="logoRayLeft" fill="#121228" d="M95 29.4c.6-.6 1-.8 1.7-.6 1.6.4 3.5 8.3 2.2 10.1-.8 1-5.4-8.1-4-9.5z"/>
    <path id="logoRayMiddle" fill="#121228" d="M110 26.6c.9-.1 1.3 0 1.7.5 1.2 1.3-1.5 8.9-3.6 9.5-1.1.4 0-9.8 1.9-10z"/>
    <path id="logoRayRight" fill="#121228" d="M124.3 33.4c.8.6 1 1 1 1.8 0 1.8-7 5.8-9 4.9-1.2-.6 6.3-7.9 8-6.7z"/>
  </g>
</svg>
