<?xml version="1.0" encoding="UTF-8"?>
<svg width="66px" height="85px" viewBox="0 0 66 85" version="1.1" xmlns="http://www.w3.org/2000/svg" xmlns:xlink="http://www.w3.org/1999/xlink">
    <!-- Generator: Sketch 51.2 (57519) - http://www.bohemiancoding.com/sketch -->
    <title>rocket</title>
    <desc>Created with Sketch.</desc>
    <defs></defs>
    <g id="Page-19" stroke="none" stroke-width="1" fill="none" fill-rule="evenodd">
        <g id="rocket" transform="translate(1.000000, 2.000000)" fill-rule="nonzero">
            <path d="M29.4011699,36.7666581 L34.8026868,36.7666581 C35.7779761,37.9957296 36.0669028,39.3668623 36.0669028,40.812867 C36.0669028,43.2491454 34.5205914,45.4728874 31.974026,47.1627476 C29.4274606,45.4728874 27.8811492,43.2491454 27.8811492,40.812867 C27.8811492,39.3668623 28.1700759,37.9957296 29.1453651,36.7666581 L29.4011699,36.7666581 Z" id="rocket-fire2" stroke="#161517" stroke-width="1.62461538" stroke-linecap="round" stroke-linejoin="round"></path>
            <path d="M30.6875979,37.2737844 L33.3883564,37.2737844 C33.876001,38.0232182 34.0204644,38.8592748 34.0204644,39.740985 C34.0204644,41.2265206 33.2473087,42.5824608 31.974026,43.6128634 C30.7007433,42.5824608 29.9275876,41.2265206 29.9275876,39.740985 C29.9275876,38.8592748 30.0720509,38.0232182 30.5596955,37.2737844 L30.6875979,37.2737844 Z" id="rocket-fire1" fill="#B9B8B9"></path>
            <polygon id="rocket-wing" stroke="#161517" stroke-width="1.62461538" fill="#FFFFFF" points="19.6953955 25.8634422 25.8347107 23.834937 38.1133412 23.834937 44.2526564 25.8634422 45.2758756 34.2310265 19.1837859 34.2310265"></polygon>
            <path d="M25.5418858,36.6204016 C23.1036628,32.2909764 21.7418339,27.4611381 21.7418339,22.3675621 C21.7418339,13.7857301 25.6076125,5.95256142 31.974026,0 C38.3404395,5.95256142 42.206218,13.7857301 42.206218,22.3675621 C42.206218,27.4611381 40.8443892,32.2909764 38.4061662,36.6204016 L25.5418858,36.6204016 Z" id="rocket-body" stroke="#161517" stroke-width="1.62461538" fill="#FFFFFF"></path>
            <ellipse id="rocket-window" fill="#B9B8B9" cx="31.974026" cy="18.2565475" rx="5.62770563" ry="5.5783895"></ellipse>
            <path d="M32.1019284,36.1327502 L32.1019284,28.5258554" id="Line" stroke="#161517" stroke-width="1.62461538" fill="#FFFFFF" stroke-linecap="round" stroke-linejoin="round"></path>
            <path d="M10.5100539,69 C10.1221055,69.0769619 9.74282893,69.1559778 9.372583,69.2369691 C3.581722,70.5037199 0,72.2537199 0,74.1867165 C0,78.0527098 14.326888,81.1867165 32,81.1867165 C49.673112,81.1867165 64,78.0527098 64,74.1867165 C64,72.2537199 60.418278,70.5037199 54.627417,69.2369691 C54.2571711,69.1559778 53.8778945,69.0769619 53.4899461,69" id="exhaust2" stroke="#161517" stroke-width="2" fill="#FFFFFF"></path>
            <ellipse id="exhaust1" stroke="#161517" stroke-width="2" cx="32" cy="60" rx="21" ry="5"></ellipse>
        </g>
    </g>
</svg>
